<svg width="176" height="176" viewBox="0 0 176 176" fill="none" xmlns="http://www.w3.org/2000/svg">
<path fill-rule="evenodd" clip-rule="evenodd" d="M110.962 89.0839C121.477 89.0839 131.561 84.907 138.996 77.472C146.431 70.0371 150.608 59.9531 150.608 49.4385C150.608 38.924 146.431 28.84 138.996 21.4051C131.561 13.9701 121.477 9.79321 110.962 9.79321L110.962 49.4385V89.0839ZM25.7007 131.108C25.7007 125.902 26.7262 120.746 28.7186 115.936C30.7109 111.126 33.6312 106.756 37.3126 103.075C40.994 99.3931 45.3645 96.4729 50.1745 94.4805C54.9845 92.4881 60.1398 91.4627 65.3461 91.4627L65.3461 131.108H25.7007ZM108.77 9.79321C85.9984 9.79321 67.5386 28.253 67.5386 51.0243V131.108C90.3099 131.108 108.77 112.648 108.77 89.8768V9.79321Z" fill="url(#paint0_linear)"/>
<path d="M8.4832 161.638C8.43209 161.399 8.40654 160.939 8.40654 160.258C8.40654 159.576 8.53431 158.852 8.78984 158.086H9.01983C9.00279 158.273 8.99427 158.46 8.99427 158.648C8.99427 159.687 9.30943 160.556 9.93976 161.254C10.5701 161.936 11.4048 162.276 12.444 162.276C13.5173 162.276 14.3946 161.953 15.076 161.305C15.7745 160.658 16.1237 159.849 16.1237 158.878C16.1237 157.89 15.7915 157.089 15.1271 156.476L10.2208 151.927C9.30092 151.075 8.84095 150.045 8.84095 148.835C8.84095 147.626 9.24129 146.595 10.042 145.743C10.8597 144.874 11.9585 144.44 13.3384 144.44C13.9857 144.44 14.7183 144.525 15.536 144.695H16.5326V147.839H16.3026C16.3026 147.038 16.0215 146.399 15.4593 145.922C14.9142 145.445 14.2072 145.207 13.3384 145.207C12.4696 145.207 11.737 145.496 11.1408 146.075C10.5616 146.655 10.272 147.379 10.272 148.247C10.272 149.116 10.6127 149.866 11.2941 150.496L16.3282 155.147C17.18 155.931 17.6058 157.004 17.6058 158.367C17.6058 159.73 17.1714 160.854 16.3026 161.74C15.4338 162.609 14.2754 163.043 12.8273 163.043C12.0777 163.043 11.2771 162.924 10.4253 162.685C9.59052 162.464 8.94317 162.115 8.4832 161.638Z" fill="#3091C3"/>
<path d="M31.8292 162.43C32.2211 162.43 32.5618 162.302 32.8514 162.046C33.141 161.774 33.2943 161.45 33.3113 161.075V155.505H23.8821V161.075C23.8991 161.45 24.0524 161.774 24.342 162.046C24.6316 162.302 24.9723 162.43 25.3642 162.43H25.6708V162.685H20.4579V162.43H20.7645C21.1734 162.43 21.5141 162.293 21.7867 162.021C22.0763 161.748 22.2296 161.425 22.2466 161.05V148.988C22.2296 148.614 22.0763 148.29 21.7867 148.017C21.4971 147.745 21.1563 147.609 20.7645 147.609H20.4579V147.353H25.6708V147.609H25.3642C24.9723 147.609 24.6316 147.745 24.342 148.017C24.0524 148.273 23.8991 148.588 23.8821 148.963V154.738H33.3113V148.988C33.3113 148.614 33.2006 148.324 32.9792 148.12C32.6214 147.779 32.2381 147.609 31.8292 147.609H31.5226V147.353H36.7355V147.609H36.4289C36.0371 147.609 35.6964 147.736 35.4067 147.992C35.1171 148.247 34.9638 148.563 34.9468 148.937V161.075C34.9638 161.45 35.0745 161.731 35.279 161.919C35.6538 162.259 36.0371 162.43 36.4289 162.43H36.7355V162.685H31.5226V162.43H31.8292Z" fill="#3091C3"/>
<path d="M55.111 147.609H54.7277C54.2677 147.609 53.9185 147.787 53.68 148.145C53.5778 148.299 53.5182 148.477 53.5011 148.682V157.293C53.5011 159.065 52.9304 160.471 51.789 161.51C50.6647 162.532 49.1144 163.043 47.1383 163.043C45.1621 163.043 43.6033 162.532 42.4619 161.51C41.3205 160.488 40.7498 159.091 40.7498 157.319V148.707C40.7498 148.401 40.6306 148.145 40.3921 147.941C40.1536 147.719 39.864 147.609 39.5233 147.609H39.14V147.353H43.9952V147.609H43.6119C43.2711 147.609 42.9815 147.719 42.743 147.941C42.5045 148.145 42.3853 148.401 42.3853 148.707V157.012C42.3853 158.665 42.8027 159.968 43.6374 160.922C44.4892 161.876 45.6817 162.353 47.2149 162.353C48.7652 162.353 50.0003 161.902 50.9202 160.999C51.8572 160.096 52.3256 158.861 52.3256 157.293V148.707C52.3086 148.384 52.1808 148.12 51.9423 147.915C51.7209 147.711 51.4398 147.609 51.0991 147.609H50.7158V147.353H55.111V147.609Z" fill="#3091C3"/>
<path d="M64.2386 148.094V161.075C64.2557 161.603 64.5112 161.995 65.0052 162.251C65.2267 162.37 65.4737 162.43 65.7463 162.43H66.0274V162.685H60.7633V162.43H61.07C61.4788 162.43 61.8281 162.293 62.1177 162.021C62.4073 161.748 62.5606 161.425 62.5776 161.05V148.094H57.9524C57.5606 148.094 57.2455 148.222 57.007 148.477C56.7855 148.733 56.6748 149.04 56.6748 149.397V149.806H56.3937V146.919C56.7344 147.055 57.2114 147.157 57.8247 147.225C58.455 147.293 58.9235 147.328 59.2301 147.328H67.5606C68.7872 147.328 69.7412 147.191 70.4226 146.919V149.806H70.1415V149.397C70.1415 149.04 70.0223 148.733 69.7838 148.477C69.5453 148.222 69.2386 148.094 68.8638 148.094H64.2386Z" fill="#3091C3"/>
<path d="M79.3861 148.094V161.075C79.4032 161.603 79.6587 161.995 80.1527 162.251C80.3742 162.37 80.6212 162.43 80.8938 162.43H81.1749V162.685H75.9108V162.43H76.2175C76.6264 162.43 76.9756 162.293 77.2652 162.021C77.5548 161.748 77.7081 161.425 77.7252 161.05V148.094H73.1C72.7081 148.094 72.393 148.222 72.1545 148.477C71.933 148.733 71.8223 149.04 71.8223 149.397V149.806H71.5412V146.919C71.8819 147.055 72.3589 147.157 72.9722 147.225C73.6025 147.293 74.071 147.328 74.3776 147.328H82.7081C83.9347 147.328 84.8887 147.191 85.5701 146.919V149.806H85.289V149.397C85.289 149.04 85.1698 148.733 84.9313 148.477C84.6928 148.222 84.3861 148.094 84.0113 148.094H79.3861Z" fill="#3091C3"/>
<path d="M87.6943 162.43C88.1031 162.43 88.4438 162.302 88.7164 162.046C89.006 161.774 89.1593 161.45 89.1764 161.075V148.988C89.1593 148.614 88.9975 148.29 88.6909 148.017C88.4013 147.745 88.052 147.609 87.6432 147.609H87.3365V147.353H92.6261V147.609H92.3195C91.9106 147.609 91.5529 147.745 91.2462 148.017C90.9566 148.29 90.8118 148.614 90.8118 148.988V161.893H94.7982C95.5818 161.893 96.2462 161.757 96.7914 161.484C97.3365 161.212 97.7454 160.888 98.0179 160.513C98.3075 160.138 98.5886 159.644 98.8612 159.031H99.1167L97.7113 162.685H87.3365V162.43H87.6943Z" fill="#3091C3"/>
<path d="M100.771 162.43C101.179 162.43 101.52 162.302 101.793 162.046C102.082 161.774 102.236 161.45 102.253 161.075V148.937C102.253 148.563 102.108 148.247 101.818 147.992C101.529 147.736 101.179 147.609 100.771 147.609H100.413V147.353H107.874C108.573 147.353 109.186 147.302 109.714 147.2C110.242 147.098 110.583 147.012 110.736 146.944V149.857L110.455 149.832V149.448C110.455 149.091 110.336 148.784 110.098 148.529C109.859 148.273 109.552 148.145 109.178 148.145H103.863V154.636H108.232C108.573 154.636 108.828 154.534 108.999 154.329C109.186 154.125 109.28 153.869 109.28 153.563V153.23H109.561V156.808H109.28V156.476C109.28 155.999 109.101 155.675 108.743 155.505C108.607 155.454 108.462 155.419 108.309 155.402H103.863V161.893H107.874C108.658 161.893 109.314 161.757 109.842 161.484C110.387 161.212 110.796 160.888 111.069 160.513C111.358 160.138 111.648 159.644 111.937 159.031H112.193L110.788 162.685H100.413V162.43H100.771Z" fill="#3091C3"/>
<path d="M132.812 149.73C132.812 150.479 132.659 151.178 132.352 151.825C131.79 153.034 130.802 153.878 129.388 154.355C128.894 154.525 128.468 154.61 128.11 154.61C127.054 154.61 126.143 154.414 125.376 154.023V153.767C126.62 154.04 127.77 153.903 128.826 153.358C129.763 152.881 130.402 152.098 130.742 151.007C130.845 150.667 130.896 150.343 130.896 150.036C130.896 149.73 130.896 149.542 130.896 149.474C130.862 148.282 130.546 147.336 129.95 146.638C129.354 145.922 128.519 145.564 127.446 145.564H124.507V160.82C124.524 161.263 124.686 161.646 124.993 161.97C125.316 162.276 125.7 162.43 126.143 162.43H126.475V162.685H120.879V162.43H121.211C121.654 162.43 122.029 162.276 122.335 161.97C122.659 161.646 122.829 161.263 122.846 160.82V146.535C122.795 146.109 122.616 145.76 122.31 145.488C122.003 145.198 121.637 145.053 121.211 145.053H120.904L120.879 144.798H127.548C129.184 144.798 130.47 145.241 131.407 146.126C132.344 146.995 132.812 148.196 132.812 149.73Z" fill="#3091C3"/>
<path d="M140.028 148.145H138.674V161.05C138.691 161.578 138.929 161.978 139.389 162.251C139.611 162.37 139.858 162.43 140.13 162.43H140.463L140.488 162.685H135.25V162.43H135.607C135.999 162.43 136.331 162.302 136.604 162.046C136.894 161.774 137.038 161.45 137.038 161.075V148.937C137.038 148.563 136.894 148.247 136.604 147.992C136.331 147.736 135.999 147.609 135.607 147.609H135.25V147.353H141.664C143.265 147.353 144.526 147.719 145.445 148.452C146.382 149.184 146.851 150.147 146.851 151.339C146.851 152.532 146.476 153.529 145.727 154.329C144.977 155.13 144.023 155.59 142.865 155.709C143.41 155.948 144.066 156.612 144.832 157.702C144.815 157.702 145.105 158.077 145.701 158.827C146.314 159.576 146.8 160.164 147.158 160.59C147.532 160.999 147.839 161.314 148.077 161.535C148.708 162.132 149.17 162.43 149.987 162.43V162.685H149.457C148.112 162.685 147.055 162.421 146.289 161.893C145.71 161.501 145.181 161.016 144.704 160.437C144.602 160.3 144.168 159.704 143.401 158.648C142.652 157.575 142.251 157.004 142.2 156.936C141.28 155.794 140.42 155.224 139.619 155.224V154.968C141.612 154.968 142.813 154.866 143.222 154.661C143.784 154.372 144.168 154.065 144.372 153.741C144.798 153.06 145.011 152.31 145.011 151.493C145.011 150.454 144.704 149.653 144.091 149.091C143.478 148.529 142.652 148.222 141.612 148.171C141.152 148.154 140.624 148.145 140.028 148.145Z" fill="#3091C3"/>
<path d="M154.859 147.773C156.171 147.092 157.611 146.751 159.178 146.751C160.762 146.751 162.21 147.092 163.522 147.773C164.834 148.438 165.873 149.383 166.639 150.61C167.423 151.836 167.815 153.225 167.815 154.775C167.815 156.325 167.423 157.714 166.639 158.94C165.873 160.167 164.834 161.121 163.522 161.802C162.21 162.467 160.864 162.799 159.484 162.799C158.105 162.799 156.887 162.603 155.83 162.211C154.774 161.819 153.854 161.274 153.071 160.576C152.304 159.877 151.691 159.025 151.231 158.02C150.788 157.015 150.566 155.84 150.566 154.494C150.566 153.131 150.95 151.836 151.716 150.61C152.5 149.383 153.548 148.438 154.859 147.773ZM154.374 160.014C155.668 161.359 157.27 162.032 159.178 162.032C161.086 162.032 162.687 161.359 163.982 160.014C165.277 158.651 165.924 156.905 165.924 154.775C165.924 152.646 165.277 150.908 163.982 149.562C162.687 148.199 161.086 147.518 159.178 147.518C157.27 147.518 155.668 148.199 154.374 149.562C153.096 150.908 152.457 152.646 152.457 154.775C152.457 156.905 153.096 158.651 154.374 160.014Z" fill="#3091C3"/>
<path d="M162.556 150.939L161.78 150.744C161.595 150.697 161.403 150.692 161.216 150.73C161.03 150.768 160.855 150.848 160.703 150.963L159.224 152.082C159.111 151.922 158.943 151.81 158.753 151.768C158.562 151.726 158.362 151.757 158.193 151.855L158.126 151.894C158.119 151.898 158.113 151.903 158.109 151.909C158.104 151.915 158.1 151.922 158.099 151.93C158.097 151.937 158.096 151.945 158.097 151.952C158.098 151.96 158.101 151.967 158.104 151.974L158.49 152.638L158.365 152.732C158.353 152.741 158.346 152.753 158.343 152.767C158.34 152.781 158.342 152.796 158.35 152.808L158.458 152.995C158.448 152.989 158.438 152.983 158.428 152.978C158.386 152.957 158.343 152.94 158.298 152.928C158.293 152.927 158.287 152.925 158.282 152.924C158.109 152.882 158.036 152.977 157.882 153.067C157.728 153.156 157.554 153.276 157.505 153.447L157.268 153.832C157.266 153.84 157.266 153.847 157.267 153.855C157.268 153.863 157.27 153.87 157.274 153.877C157.278 153.884 157.283 153.89 157.289 153.894C157.295 153.899 157.302 153.902 157.31 153.904L157.31 153.905L157.805 153.968C157.978 154.01 158.205 154.052 158.359 153.963C158.513 153.873 158.705 153.908 158.754 153.737C158.757 153.727 158.759 153.717 158.762 153.706C158.771 153.667 158.777 153.626 158.779 153.585C158.78 153.573 158.78 153.561 158.78 153.549L158.888 153.736C158.895 153.748 158.907 153.758 158.92 153.762C158.934 153.767 158.948 153.766 158.962 153.76L159.105 153.699L159.491 154.363C159.494 154.369 159.5 154.375 159.506 154.38C159.512 154.384 159.519 154.388 159.526 154.39C159.534 154.392 159.541 154.392 159.549 154.391C159.556 154.39 159.564 154.388 159.57 154.384L159.638 154.344C159.807 154.246 159.932 154.088 159.991 153.902C160.049 153.715 160.035 153.514 159.952 153.337L161.658 152.608C161.833 152.534 161.989 152.421 162.114 152.278C162.24 152.135 162.331 151.965 162.382 151.782L162.598 151.011C162.6 151.004 162.601 150.996 162.6 150.988C162.599 150.98 162.596 150.973 162.592 150.966C162.589 150.959 162.583 150.953 162.577 150.949C162.571 150.944 162.564 150.941 162.556 150.939ZM158.235 151.966L158.252 151.956C158.396 151.872 158.567 151.846 158.73 151.883C158.892 151.919 159.036 152.016 159.131 152.153L158.583 152.567L158.235 151.966ZM158.28 153.127C158.314 153.108 158.351 153.095 158.389 153.09C158.473 153.137 158.543 153.205 158.591 153.288C158.639 153.371 158.664 153.466 158.663 153.562C158.637 153.596 158.603 153.625 158.564 153.645C158.525 153.665 158.482 153.676 158.439 153.677C158.395 153.679 158.352 153.671 158.312 153.654C158.272 153.636 158.236 153.61 158.207 153.578C158.178 153.545 158.157 153.506 158.145 153.464C158.133 153.422 158.13 153.378 158.137 153.335C158.144 153.292 158.16 153.251 158.185 153.215C158.21 153.179 158.242 153.149 158.28 153.127ZM157.833 153.854L157.397 153.806L157.617 153.479C157.656 153.343 157.804 153.253 157.924 153.178C158.044 153.103 158.077 153.006 158.216 153.03C158.123 153.085 158.056 153.175 158.03 153.28C158.003 153.385 158.018 153.496 158.072 153.589C158.126 153.683 158.215 153.751 158.319 153.78C158.424 153.808 158.535 153.795 158.629 153.742C158.581 153.875 158.408 153.805 158.283 153.871C158.159 153.938 157.97 153.888 157.833 153.854ZM158.963 153.633L158.476 152.794L158.726 152.605L159.251 153.51L158.963 153.633ZM159.579 154.244L159.562 154.253L159.214 153.653L159.845 153.383C159.916 153.534 159.929 153.706 159.88 153.865C159.831 154.024 159.723 154.16 159.579 154.244ZM162.27 151.751C162.225 151.913 162.144 152.063 162.035 152.191C161.925 152.319 161.788 152.421 161.635 152.49C161.522 152.128 161.356 151.785 161.14 151.473C161.136 151.466 161.131 151.461 161.124 151.456C161.118 151.452 161.11 151.449 161.103 151.447C161.095 151.446 161.087 151.446 161.08 151.447C161.072 151.449 161.065 151.452 161.058 151.457C161.052 151.461 161.047 151.467 161.042 151.473C161.038 151.48 161.035 151.487 161.034 151.495C161.033 151.502 161.033 151.51 161.035 151.518C161.036 151.526 161.04 151.533 161.044 151.539C161.255 151.845 161.418 152.182 161.527 152.537L159.359 153.464L158.82 152.534L160.7 151.112C160.77 151.187 160.838 151.265 160.901 151.345C160.911 151.357 160.925 151.365 160.94 151.367C160.955 151.368 160.971 151.364 160.983 151.354C160.995 151.345 161.003 151.331 161.005 151.315C161.006 151.3 161.002 151.285 160.993 151.273C160.93 151.193 160.863 151.116 160.794 151.041C160.93 150.942 161.086 150.874 161.252 150.842C161.417 150.811 161.588 150.816 161.751 150.857L162.47 151.037L162.27 151.751Z" fill="black"/>
<path d="M160.658 151.704C160.627 151.726 160.601 151.754 160.581 151.786C160.561 151.818 160.548 151.854 160.542 151.891C160.536 151.929 160.537 151.967 160.546 152.003C160.554 152.04 160.57 152.075 160.592 152.106C160.637 152.168 160.704 152.209 160.78 152.222C160.817 152.228 160.855 152.226 160.892 152.218C160.929 152.209 160.964 152.193 160.994 152.171C161.056 152.126 161.098 152.059 161.11 151.984C161.122 151.908 161.104 151.831 161.06 151.769C161.015 151.707 160.948 151.665 160.872 151.653C160.797 151.641 160.72 151.659 160.658 151.704L160.658 151.704ZM160.926 152.076C160.899 152.096 160.866 152.107 160.832 152.109C160.798 152.11 160.765 152.101 160.736 152.083C160.707 152.065 160.684 152.039 160.67 152.008C160.656 151.978 160.651 151.943 160.657 151.91C160.662 151.876 160.678 151.845 160.701 151.821C160.724 151.796 160.754 151.778 160.787 151.771C160.82 151.763 160.854 151.765 160.886 151.777C160.918 151.789 160.945 151.81 160.965 151.837C160.991 151.874 161.002 151.92 160.995 151.965C160.988 152.01 160.963 152.05 160.926 152.076Z" fill="black"/>
<path d="M160.253 151.937C160.206 151.929 160.158 151.933 160.114 151.949C160.069 151.964 160.028 151.99 159.996 152.025C159.964 152.059 159.941 152.101 159.929 152.147C159.916 152.193 159.916 152.241 159.927 152.287C159.937 152.333 159.96 152.376 159.991 152.411C160.022 152.447 160.062 152.474 160.106 152.491C160.15 152.507 160.198 152.513 160.245 152.506C160.292 152.5 160.336 152.482 160.375 152.455C160.421 152.422 160.456 152.375 160.476 152.322C160.496 152.269 160.5 152.21 160.487 152.155C160.474 152.1 160.445 152.049 160.403 152.01C160.361 151.972 160.309 151.946 160.253 151.937L160.253 151.937ZM160.307 152.36C160.279 152.38 160.246 152.391 160.213 152.392C160.179 152.393 160.145 152.385 160.116 152.367C160.088 152.349 160.065 152.323 160.051 152.292C160.037 152.261 160.032 152.227 160.038 152.194C160.043 152.16 160.058 152.129 160.081 152.104C160.104 152.079 160.134 152.062 160.167 152.054C160.2 152.047 160.235 152.049 160.267 152.061C160.298 152.073 160.326 152.094 160.346 152.121C160.372 152.158 160.383 152.204 160.375 152.249C160.368 152.293 160.343 152.333 160.307 152.36Z" fill="black"/>
<path d="M159.416 152.325C159.355 152.37 159.314 152.437 159.302 152.513C159.29 152.588 159.308 152.665 159.352 152.726C159.397 152.788 159.464 152.83 159.539 152.842C159.614 152.855 159.691 152.837 159.753 152.793C159.784 152.771 159.81 152.743 159.83 152.711C159.85 152.678 159.864 152.643 159.87 152.605C159.876 152.568 159.875 152.529 159.866 152.492C159.858 152.455 159.842 152.421 159.82 152.39C159.797 152.359 159.769 152.333 159.737 152.313C159.705 152.293 159.669 152.28 159.631 152.274C159.594 152.268 159.556 152.269 159.519 152.278C159.482 152.287 159.447 152.303 159.416 152.325ZM159.685 152.698C159.653 152.721 159.613 152.732 159.574 152.73C159.534 152.727 159.497 152.711 159.468 152.684C159.439 152.657 159.42 152.621 159.415 152.582C159.41 152.542 159.418 152.503 159.439 152.469C159.46 152.435 159.492 152.41 159.529 152.397C159.567 152.384 159.608 152.385 159.645 152.399C159.682 152.412 159.713 152.439 159.733 152.473C159.753 152.507 159.76 152.547 159.754 152.587C159.746 152.631 159.722 152.671 159.685 152.698L159.685 152.698Z" fill="black"/>
<path d="M161.593 150.908C161.405 150.884 161.214 150.916 161.044 151C161.037 151.003 161.03 151.008 161.025 151.014C161.02 151.019 161.016 151.026 161.014 151.033C161.011 151.041 161.01 151.048 161.011 151.056C161.011 151.064 161.013 151.071 161.017 151.078C161.02 151.085 161.025 151.091 161.03 151.096C161.036 151.101 161.043 151.105 161.05 151.108C161.058 151.11 161.065 151.111 161.073 151.111C161.081 151.11 161.088 151.108 161.095 151.105C161.245 151.031 161.413 151.003 161.579 151.023C161.586 151.024 161.594 151.024 161.601 151.022C161.609 151.02 161.616 151.016 161.622 151.012C161.628 151.007 161.633 151.001 161.637 150.994C161.641 150.988 161.643 150.98 161.644 150.973C161.645 150.965 161.644 150.957 161.642 150.95C161.64 150.942 161.637 150.935 161.632 150.929C161.627 150.923 161.621 150.918 161.614 150.915C161.608 150.911 161.6 150.908 161.593 150.908Z" fill="black"/>
<path d="M161.792 151.058L161.793 151.058L161.867 151.069C161.883 151.072 161.898 151.068 161.911 151.058C161.923 151.049 161.931 151.035 161.934 151.02C161.936 151.005 161.932 150.989 161.923 150.977C161.914 150.964 161.9 150.956 161.885 150.954L161.81 150.943C161.802 150.941 161.795 150.942 161.787 150.944C161.78 150.945 161.773 150.949 161.766 150.953C161.76 150.958 161.755 150.963 161.751 150.97C161.747 150.976 161.744 150.984 161.743 150.991C161.742 150.999 161.742 151.007 161.744 151.014C161.746 151.022 161.749 151.029 161.754 151.035C161.758 151.041 161.764 151.046 161.77 151.05C161.777 151.054 161.784 151.057 161.792 151.058Z" fill="black"/>
<path d="M151.34 161.099C148.343 159.522 154.749 154.965 158.327 152.786L158.9 153.757C150.427 158.332 150.354 160.48 151.34 161.099Z" fill="#FFB800"/>
<path d="M63.0179 87.5112C48.2408 63.7592 99.3816 37.9152 126.912 26.7416C122.772 28.4721 127.974 33.2891 130.242 32.7035C60.1883 54.8973 56.3558 76.8028 63.0179 87.5112Z" fill="#FD8935"/>
<path d="M137.378 40.9529L139.953 27.2778L145.853 24.5177C146.395 24.264 146.773 23.7275 147.014 23.1795C147.409 22.2822 148.125 21.1467 148.54 20.5427C147.749 20.67 145.334 20.587 143.654 20.5007C143.045 20.4693 142.437 20.5708 141.874 20.8059L136.067 23.2313L119.097 19.9536C127.914 24.6916 129.011 28.4532 128.296 29.8204C132.744 29.5277 136.146 37.2293 137.378 40.9529Z" fill="#5B6CC8"/>
<path fill-rule="evenodd" clip-rule="evenodd" d="M148.856 20.3425L148.516 20.3972C148.136 20.4584 147.348 20.4701 146.433 20.4545C145.522 20.4389 144.5 20.3966 143.661 20.3535C143.031 20.3211 142.4 20.4261 141.817 20.6699L136.051 23.0782L119.125 19.8089L119.027 20.0835C123.426 22.4472 125.884 24.5599 127.153 26.24C128.427 27.9268 128.483 29.1446 128.165 29.7522L128.043 29.9848L128.305 29.9676C129.371 29.8975 130.383 30.305 131.328 31.0298C132.274 31.7552 133.145 32.7924 133.92 33.9621C135.471 36.3013 136.624 39.1442 137.238 40.9992L137.417 41.5411L140.084 27.3794L145.915 24.6513C146.504 24.3757 146.902 23.8012 147.149 23.239C147.538 22.3544 148.248 21.2279 148.661 20.6263L148.856 20.3425ZM148.24 20.724C147.817 21.3619 147.227 22.3295 146.879 23.1202C146.644 23.6539 146.285 24.1524 145.79 24.3842L139.822 27.1764L137.337 40.3754C136.686 38.5224 135.594 35.9538 134.166 33.7991C133.381 32.6146 132.489 31.5485 131.508 30.7958C130.592 30.0939 129.591 29.6593 128.522 29.665C128.789 28.8788 128.569 27.6246 127.388 26.0622C126.167 24.4457 123.9 22.4699 119.991 20.2766L136.083 23.3846L141.93 20.942C142.472 20.7157 143.058 20.6178 143.646 20.648C144.487 20.6912 145.513 20.7336 146.428 20.7493C147.139 20.7615 147.792 20.7578 148.24 20.724Z" fill="black"/>
<path d="M139.033 27.7796C138.62 30.1981 137.709 35.1276 137.367 35.498C137.748 33.1592 138.613 28.3413 139.033 27.7796Z" fill="white"/>
<path d="M143.191 21.0745C141.141 22.0053 136.962 23.8501 136.639 23.7826C138.59 22.8649 142.632 21.0385 143.191 21.0745Z" fill="white"/>
<path d="M145.665 22.9159L146.22 21.55L144.249 21.5048L145.665 22.9159Z" fill="white"/>
<defs>
<linearGradient id="paint0_linear" x1="93.7045" y1="3.0535" x2="93.7045" y2="137.848" gradientUnits="userSpaceOnUse">
<stop stop-color="#119E58"/>
<stop offset="1" stop-color="#395EAD"/>
</linearGradient>
</defs>
</svg>
