<svg xmlns="http://www.w3.org/2000/svg" width="244" height="204" viewBox="0 0 244 204" fill="none"><path d="M0.506461 200.907C0.428586 200.544 0.389648 199.843 0.389648 198.805C0.389648 197.766 0.584336 196.663 0.973711 195.495H1.32415C1.29819 195.781 1.28521 196.066 1.28521 196.352C1.28521 197.935 1.76544 199.259 2.7259 200.323C3.68636 201.362 4.95832 201.881 6.54178 201.881C8.17715 201.881 9.51401 201.388 10.5523 200.401C11.6166 199.415 12.1488 198.182 12.1488 196.702C12.1488 195.197 11.6426 193.976 10.6302 193.042L3.15421 186.111C1.75246 184.813 1.05159 183.243 1.05159 181.4C1.05159 179.557 1.66161 177.986 2.88165 176.688C4.12765 175.364 5.80196 174.702 7.90459 174.702C8.89101 174.702 10.0072 174.832 11.2532 175.092H12.7718V179.881H12.4213C12.4213 178.661 11.993 177.688 11.1364 176.961C10.3057 176.234 9.22847 175.871 7.90459 175.871C6.58072 175.871 5.46451 176.312 4.55596 177.194C3.67338 178.077 3.23209 179.18 3.23209 180.504C3.23209 181.828 3.75126 182.97 4.78959 183.931L12.4603 191.017C13.7582 192.211 14.4072 193.847 14.4072 195.923C14.4072 198 13.7452 199.713 12.4213 201.063C11.0975 202.387 9.3323 203.049 7.12584 203.049C5.98367 203.049 4.76363 202.867 3.46571 202.504C2.19375 202.166 1.20734 201.634 0.506461 200.907Z" fill="#3091C3"></path><path d="M36.0802 202.114C36.6772 202.114 37.1964 201.92 37.6377 201.53C38.0789 201.115 38.3126 200.622 38.3385 200.051V191.562H23.9706V200.051C23.9965 200.622 24.2302 201.115 24.6715 201.53C25.1127 201.92 25.6319 202.114 26.229 202.114H26.6962V202.504H18.753V202.114H19.2202C19.8432 202.114 20.3624 201.907 20.7777 201.491C21.219 201.076 21.4526 200.583 21.4786 200.012V181.633C21.4526 181.062 21.219 180.569 20.7777 180.154C20.3364 179.738 19.8172 179.531 19.2202 179.531H18.753V179.141H26.6962V179.531H26.229C25.6319 179.531 25.1127 179.738 24.6715 180.154C24.2302 180.543 23.9965 181.023 23.9706 181.594V190.394H38.3385V181.633C38.3385 181.062 38.1698 180.621 37.8323 180.309C37.2872 179.79 36.7032 179.531 36.0802 179.531H35.6129V179.141H43.5562V179.531H43.0889C42.4919 179.531 41.9727 179.725 41.5314 180.115C41.0901 180.504 40.8565 180.984 40.8305 181.555V200.051C40.8565 200.622 41.0252 201.05 41.3367 201.336C41.9078 201.855 42.4919 202.114 43.0889 202.114H43.5562V202.504H35.6129V202.114H36.0802Z" fill="#3091C3"></path><path d="M71.5559 179.531H70.9718C70.271 179.531 69.7388 179.803 69.3754 180.348C69.2196 180.582 69.1288 180.855 69.1028 181.166V194.288C69.1028 196.988 68.2332 199.129 66.494 200.713C64.7808 202.27 62.4186 203.049 59.4074 203.049C56.3962 203.049 54.021 202.27 52.2818 200.713C50.5426 199.155 49.673 197.027 49.673 194.327V181.205C49.673 180.738 49.4913 180.348 49.1279 180.037C48.7645 179.699 48.3232 179.531 47.804 179.531H47.2199V179.141H54.6181V179.531H54.034C53.5148 179.531 53.0736 179.699 52.7101 180.037C52.3467 180.348 52.165 180.738 52.165 181.205V193.86C52.165 196.378 52.801 198.363 54.0729 199.817C55.3709 201.271 57.1879 201.998 59.5242 201.998C61.8864 201.998 63.7684 201.31 65.1701 199.934C66.5979 198.558 67.3117 196.676 67.3117 194.288V181.205C67.2857 180.712 67.0911 180.309 66.7276 179.998C66.3902 179.686 65.9619 179.531 65.4427 179.531H64.8586V179.141H71.5559V179.531Z" fill="#3091C3"></path><path d="M85.4642 180.27V200.051C85.4902 200.855 85.8795 201.452 86.6323 201.842C86.9698 202.024 87.3462 202.114 87.7615 202.114H88.1898V202.504H80.1687V202.114H80.6359C81.2589 202.114 81.7911 201.907 82.2324 201.491C82.6737 201.076 82.9073 200.583 82.9333 200.012V180.27H75.8856C75.2885 180.27 74.8083 180.465 74.4449 180.855C74.1074 181.244 73.9387 181.711 73.9387 182.256V182.879H73.5104V178.479C74.0295 178.687 74.7564 178.843 75.6909 178.947C76.6513 179.05 77.3652 179.102 77.8324 179.102H90.5261C92.3951 179.102 93.8487 178.895 94.8871 178.479V182.879H94.4588V182.256C94.4588 181.711 94.2771 181.244 93.9136 180.855C93.5502 180.465 93.083 180.27 92.5119 180.27H85.4642Z" fill="#3091C3"></path><path d="M108.545 180.27V200.051C108.571 200.855 108.961 201.452 109.713 201.842C110.051 202.024 110.427 202.114 110.843 202.114H111.271V202.504H103.25V202.114H103.717C104.34 202.114 104.872 201.907 105.314 201.491C105.755 201.076 105.988 200.583 106.014 200.012V180.27H98.9667C98.3697 180.27 97.8894 180.465 97.526 180.855C97.1886 181.244 97.0198 181.711 97.0198 182.256V182.879H96.5915V178.479C97.1107 178.687 97.8375 178.843 98.772 178.947C99.7325 179.05 100.446 179.102 100.914 179.102H113.607C115.476 179.102 116.93 178.895 117.968 178.479V182.879H117.54V182.256C117.54 181.711 117.358 181.244 116.995 180.855C116.631 180.465 116.164 180.27 115.593 180.27H108.545Z" fill="#3091C3"></path><path d="M121.205 202.114C121.828 202.114 122.347 201.92 122.762 201.53C123.204 201.115 123.437 200.622 123.463 200.051V181.633C123.437 181.062 123.191 180.569 122.723 180.154C122.282 179.738 121.75 179.531 121.127 179.531H120.66V179.141H128.72V179.531H128.253C127.63 179.531 127.084 179.738 126.617 180.154C126.176 180.569 125.955 181.062 125.955 181.633V201.297H132.03C133.224 201.297 134.236 201.089 135.067 200.674C135.897 200.258 136.52 199.765 136.936 199.194C137.377 198.623 137.805 197.87 138.221 196.936H138.61L136.468 202.504H120.66V202.114H121.205Z" fill="#3091C3"></path><path d="M141.13 202.114C141.753 202.114 142.272 201.92 142.687 201.53C143.129 201.115 143.362 200.622 143.388 200.051V181.555C143.388 180.984 143.168 180.504 142.726 180.115C142.285 179.725 141.753 179.531 141.13 179.531H140.585V179.141H151.955C153.019 179.141 153.953 179.063 154.758 178.908C155.563 178.752 156.082 178.622 156.316 178.518V182.957L155.887 182.918V182.334C155.887 181.789 155.706 181.322 155.342 180.932C154.979 180.543 154.511 180.348 153.94 180.348H145.841V190.238H152.5C153.019 190.238 153.408 190.083 153.668 189.771C153.953 189.46 154.096 189.07 154.096 188.603V188.097H154.524V193.548H154.096V193.042C154.096 192.315 153.824 191.822 153.278 191.562C153.071 191.484 152.85 191.433 152.617 191.407H145.841V201.297H151.955C153.149 201.297 154.148 201.089 154.953 200.674C155.783 200.258 156.406 199.765 156.822 199.194C157.263 198.623 157.704 197.87 158.146 196.936H158.535L156.393 202.504H140.585V202.114H141.13Z" fill="#3091C3"></path><path d="M189.954 182.762C189.954 183.905 189.72 184.969 189.253 185.955C188.396 187.798 186.891 189.083 184.736 189.81C183.983 190.07 183.334 190.2 182.789 190.2C181.18 190.2 179.791 189.901 178.623 189.304V188.915C180.518 189.33 182.27 189.122 183.879 188.292C185.307 187.565 186.281 186.371 186.8 184.709C186.955 184.19 187.033 183.697 187.033 183.23C187.033 182.762 187.033 182.477 187.033 182.373C186.981 180.556 186.501 179.115 185.593 178.051C184.684 176.961 183.412 176.416 181.777 176.416H177.299V199.661C177.325 200.336 177.572 200.92 178.039 201.414C178.532 201.881 179.116 202.114 179.791 202.114H180.297V202.504H171.77V202.114H172.276C172.951 202.114 173.522 201.881 173.989 201.414C174.482 200.92 174.742 200.336 174.768 199.661V177.895C174.69 177.246 174.418 176.714 173.95 176.299C173.483 175.858 172.925 175.637 172.276 175.637H171.809L171.77 175.248H181.933C184.425 175.248 186.384 175.922 187.812 177.272C189.24 178.596 189.954 180.426 189.954 182.762Z" fill="#3091C3"></path><path d="M200.949 180.348H198.885V200.012C198.911 200.817 199.275 201.427 199.976 201.842C200.313 202.024 200.689 202.114 201.105 202.114H201.611L201.65 202.504H193.668V202.114H194.213C194.81 202.114 195.316 201.92 195.731 201.53C196.173 201.115 196.393 200.622 196.393 200.051V181.555C196.393 180.984 196.173 180.504 195.731 180.115C195.316 179.725 194.81 179.531 194.213 179.531H193.668V179.141H203.441C205.881 179.141 207.802 179.699 209.204 180.816C210.631 181.932 211.345 183.398 211.345 185.216C211.345 187.033 210.774 188.551 209.632 189.771C208.49 190.991 207.036 191.692 205.271 191.874C206.102 192.237 207.101 193.25 208.269 194.911C208.243 194.911 208.685 195.482 209.593 196.624C210.528 197.766 211.267 198.662 211.813 199.311C212.384 199.934 212.851 200.414 213.214 200.752C214.175 201.66 214.878 202.114 216.124 202.114V202.504H215.317C213.266 202.504 211.657 202.101 210.489 201.297C209.606 200.7 208.801 199.96 208.075 199.077C207.919 198.87 207.257 197.961 206.089 196.352C204.947 194.716 204.337 193.847 204.259 193.743C202.857 192.004 201.546 191.134 200.326 191.134V190.745C203.363 190.745 205.193 190.589 205.816 190.277C206.673 189.836 207.257 189.369 207.568 188.876C208.217 187.837 208.542 186.695 208.542 185.449C208.542 183.866 208.075 182.646 207.14 181.789C206.206 180.932 204.947 180.465 203.363 180.387C202.662 180.361 201.858 180.348 200.949 180.348Z" fill="#3091C3"></path><path d="M223.547 180.397C225.546 179.358 227.74 178.839 230.128 178.839C232.542 178.839 234.748 179.358 236.747 180.397C238.746 181.409 240.329 182.85 241.498 184.719C242.692 186.588 243.289 188.703 243.289 191.065C243.289 193.428 242.692 195.543 241.498 197.412C240.329 199.281 238.746 200.735 236.747 201.773C234.748 202.786 232.698 203.292 230.595 203.292C228.492 203.292 226.636 202.993 225.027 202.396C223.418 201.799 222.016 200.969 220.822 199.904C219.654 198.84 218.719 197.542 218.018 196.011C217.343 194.479 217.006 192.688 217.006 190.637C217.006 188.561 217.59 186.588 218.758 184.719C219.952 182.85 221.549 181.409 223.547 180.397ZM222.808 199.048C224.78 201.098 227.22 202.124 230.128 202.124C233.035 202.124 235.475 201.098 237.448 199.048C239.421 196.971 240.407 194.31 240.407 191.065C240.407 187.821 239.421 185.173 237.448 183.122C235.475 181.046 233.035 180.007 230.128 180.007C227.22 180.007 224.78 181.046 222.808 183.122C220.861 185.173 219.887 187.821 219.887 191.065C219.887 194.31 220.861 196.971 222.808 199.048Z" fill="#3091C3"></path><path d="M238.289 185.288L237.246 185.067C236.998 185.014 236.737 185.017 236.482 185.075C236.227 185.133 235.985 185.245 235.773 185.402L233.707 186.932C233.563 186.728 233.341 186.589 233.084 186.543C232.827 186.496 232.555 186.545 232.32 186.681L232.227 186.735C232.217 186.74 232.209 186.747 232.203 186.756C232.196 186.764 232.191 186.773 232.188 186.783C232.185 186.793 232.184 186.803 232.185 186.813C232.186 186.823 232.189 186.832 232.194 186.84L232.682 187.692L232.507 187.821C232.491 187.833 232.48 187.849 232.476 187.868C232.471 187.886 232.474 187.905 232.483 187.921L232.62 188.16C232.607 188.153 232.594 188.146 232.58 188.14C232.525 188.114 232.467 188.094 232.406 188.08C232.399 188.079 232.392 188.077 232.385 188.076C232.152 188.028 232.049 188.156 231.835 188.28C231.621 188.404 231.379 188.569 231.303 188.795L230.962 189.309C230.958 189.319 230.957 189.329 230.958 189.339C230.959 189.349 230.962 189.359 230.967 189.367C230.972 189.376 230.978 189.383 230.986 189.389C230.995 189.395 231.004 189.399 231.014 189.402L231.015 189.402L231.682 189.463C231.915 189.51 232.221 189.555 232.435 189.432C232.649 189.308 232.907 189.345 232.983 189.118C232.987 189.105 232.991 189.092 232.995 189.078C233.01 189.026 233.02 188.972 233.025 188.918C233.026 188.903 233.027 188.887 233.028 188.872L233.165 189.111C233.174 189.127 233.189 189.139 233.207 189.144C233.225 189.149 233.245 189.148 233.263 189.14L233.462 189.053L233.95 189.904C233.955 189.913 233.961 189.92 233.969 189.926C233.978 189.932 233.987 189.936 233.997 189.938C234.007 189.94 234.017 189.941 234.027 189.939C234.038 189.937 234.048 189.934 234.057 189.928L234.151 189.874C234.385 189.738 234.564 189.526 234.653 189.279C234.741 189.033 234.733 188.77 234.63 188.542L236.983 187.512C237.224 187.407 237.442 187.252 237.62 187.06C237.797 186.867 237.931 186.641 238.009 186.399L238.343 185.381C238.346 185.371 238.347 185.361 238.346 185.351C238.345 185.341 238.342 185.331 238.337 185.322C238.332 185.314 238.326 185.306 238.317 185.3C238.309 185.294 238.3 185.29 238.289 185.288ZM232.371 186.824L232.395 186.81C232.595 186.695 232.828 186.653 233.047 186.693C233.266 186.734 233.455 186.854 233.577 187.029L232.813 187.595L232.371 186.824ZM232.372 188.342C232.418 188.315 232.469 188.296 232.522 188.288C232.633 188.345 232.724 188.432 232.785 188.538C232.846 188.645 232.875 188.767 232.869 188.893C232.831 188.94 232.784 188.978 232.73 189.006C232.676 189.034 232.618 189.051 232.558 189.055C232.499 189.059 232.441 189.05 232.387 189.029C232.334 189.008 232.286 188.976 232.249 188.934C232.211 188.893 232.185 188.843 232.17 188.789C232.156 188.734 232.155 188.677 232.167 188.62C232.178 188.563 232.203 188.509 232.238 188.461C232.274 188.413 232.319 188.372 232.372 188.342ZM231.726 189.313L231.137 189.269L231.454 188.832C231.514 188.652 231.719 188.527 231.886 188.424C232.052 188.32 232.102 188.192 232.29 188.217C232.161 188.294 232.066 188.415 232.024 188.553C231.982 188.691 231.997 188.836 232.065 188.955C232.134 189.075 232.251 189.161 232.391 189.194C232.531 189.226 232.683 189.204 232.813 189.131C232.741 189.306 232.509 189.222 232.337 189.315C232.165 189.408 231.911 189.35 231.726 189.313ZM233.272 188.973L232.656 187.897L233.004 187.639L233.669 188.799L233.272 188.973ZM234.077 189.745L234.053 189.758L233.611 188.988L234.482 188.607C234.571 188.801 234.579 189.025 234.504 189.236C234.429 189.447 234.277 189.628 234.077 189.745ZM237.858 186.363C237.789 186.578 237.672 186.778 237.516 186.95C237.361 187.122 237.17 187.262 236.958 187.359C236.824 186.89 236.616 186.449 236.34 186.05C236.335 186.041 236.328 186.034 236.319 186.029C236.311 186.023 236.301 186.02 236.291 186.018C236.28 186.017 236.27 186.017 236.259 186.019C236.249 186.022 236.239 186.026 236.23 186.032C236.221 186.038 236.213 186.046 236.207 186.055C236.201 186.064 236.197 186.073 236.195 186.083C236.192 186.093 236.192 186.104 236.194 186.114C236.196 186.123 236.2 186.133 236.206 186.141C236.476 186.532 236.68 186.965 236.809 187.425L233.818 188.734L233.135 187.542L235.761 185.597C235.852 185.692 235.94 185.791 236.022 185.893C236.035 185.909 236.053 185.918 236.074 185.92C236.095 185.921 236.116 185.915 236.133 185.902C236.15 185.889 236.161 185.87 236.164 185.85C236.167 185.83 236.162 185.81 236.15 185.794C236.069 185.693 235.982 185.595 235.892 185.501C236.082 185.365 236.298 185.269 236.524 185.22C236.751 185.171 236.982 185.17 237.201 185.217L238.167 185.421L237.858 186.363Z" fill="#3091C3"></path><path d="M235.593 186.527C235.552 186.557 235.516 186.595 235.489 186.638C235.463 186.682 235.444 186.73 235.436 186.781C235.428 186.831 235.43 186.883 235.441 186.933C235.453 186.983 235.474 187.03 235.504 187.071C235.564 187.155 235.655 187.212 235.757 187.228C235.807 187.236 235.859 187.235 235.909 187.223C235.958 187.211 236.005 187.189 236.047 187.159C236.13 187.099 236.187 187.007 236.204 186.905C236.22 186.803 236.196 186.699 236.136 186.615C236.075 186.531 235.984 186.474 235.883 186.458C235.781 186.441 235.677 186.466 235.593 186.527L235.593 186.527ZM235.955 187.031C235.918 187.058 235.873 187.073 235.828 187.075C235.782 187.077 235.737 187.065 235.698 187.041C235.659 187.016 235.628 186.981 235.609 186.94C235.59 186.898 235.584 186.851 235.592 186.806C235.599 186.761 235.62 186.719 235.651 186.685C235.682 186.651 235.723 186.628 235.767 186.617C235.812 186.607 235.858 186.61 235.901 186.626C235.944 186.642 235.981 186.67 236.008 186.707C236.043 186.757 236.058 186.819 236.048 186.88C236.038 186.941 236.005 186.995 235.955 187.031V187.031Z" fill="#3091C3"></path><path d="M235.044 186.839C234.981 186.829 234.917 186.835 234.856 186.856C234.796 186.876 234.741 186.912 234.698 186.959C234.654 187.006 234.623 187.063 234.606 187.125C234.59 187.187 234.589 187.252 234.603 187.314C234.618 187.377 234.648 187.434 234.69 187.482C234.732 187.53 234.785 187.567 234.845 187.59C234.905 187.612 234.969 187.619 235.033 187.611C235.096 187.602 235.156 187.578 235.208 187.541C235.271 187.496 235.319 187.433 235.346 187.361C235.373 187.288 235.378 187.21 235.36 187.134C235.343 187.059 235.303 186.991 235.247 186.939C235.191 186.886 235.12 186.852 235.044 186.839L235.044 186.839ZM235.116 187.412C235.079 187.439 235.035 187.455 234.989 187.456C234.944 187.458 234.898 187.446 234.86 187.422C234.821 187.398 234.79 187.363 234.771 187.321C234.752 187.279 234.746 187.233 234.753 187.187C234.761 187.142 234.781 187.1 234.812 187.066C234.844 187.033 234.884 187.009 234.929 186.999C234.973 186.988 235.02 186.991 235.063 187.007C235.106 187.023 235.143 187.051 235.169 187.089C235.205 187.139 235.219 187.201 235.209 187.261C235.2 187.322 235.166 187.376 235.116 187.412Z" fill="#3091C3"></path><path d="M233.915 187.362C233.832 187.423 233.776 187.514 233.76 187.616C233.744 187.718 233.768 187.822 233.828 187.905C233.888 187.989 233.979 188.045 234.08 188.062C234.181 188.079 234.285 188.055 234.369 187.995C234.411 187.965 234.446 187.927 234.474 187.883C234.501 187.84 234.519 187.791 234.528 187.74C234.536 187.69 234.534 187.638 234.523 187.588C234.511 187.538 234.49 187.49 234.46 187.449C234.43 187.407 234.392 187.372 234.349 187.345C234.305 187.318 234.256 187.3 234.206 187.292C234.155 187.284 234.104 187.286 234.054 187.298C234.004 187.31 233.957 187.332 233.915 187.362V187.362ZM234.277 187.867C234.234 187.898 234.181 187.913 234.127 187.91C234.074 187.907 234.024 187.885 233.984 187.848C233.945 187.812 233.92 187.763 233.913 187.709C233.906 187.656 233.918 187.602 233.946 187.557C233.974 187.511 234.017 187.476 234.068 187.459C234.118 187.442 234.173 187.442 234.224 187.461C234.274 187.48 234.316 187.515 234.342 187.562C234.369 187.608 234.379 187.662 234.371 187.715C234.361 187.776 234.327 187.83 234.277 187.867L234.277 187.867Z" fill="#3091C3"></path><path d="M237.018 185.313C236.731 185.282 236.44 185.325 236.181 185.434C236.17 185.438 236.161 185.444 236.153 185.452C236.145 185.459 236.139 185.468 236.135 185.477C236.131 185.487 236.13 185.497 236.131 185.507C236.131 185.517 236.134 185.527 236.139 185.536C236.145 185.545 236.152 185.553 236.161 185.559C236.169 185.566 236.18 185.571 236.191 185.574C236.202 185.578 236.214 185.579 236.225 185.578C236.237 185.577 236.249 185.575 236.259 185.57C236.488 185.474 236.744 185.437 236.996 185.464C237.008 185.465 237.02 185.464 237.031 185.462C237.042 185.459 237.053 185.454 237.062 185.448C237.071 185.442 237.079 185.434 237.085 185.426C237.091 185.417 237.094 185.407 237.096 185.397C237.097 185.387 237.096 185.377 237.093 185.368C237.09 185.358 237.085 185.349 237.077 185.341C237.07 185.333 237.061 185.327 237.051 185.322C237.041 185.317 237.029 185.314 237.018 185.313V185.313Z" fill="#3091C3"></path><path d="M237.323 185.509L237.325 185.509L237.438 185.523C237.462 185.526 237.485 185.521 237.504 185.509C237.523 185.497 237.536 185.479 237.54 185.459C237.543 185.439 237.537 185.419 237.523 185.402C237.509 185.386 237.488 185.375 237.465 185.372L237.351 185.358C237.34 185.356 237.328 185.357 237.316 185.359C237.305 185.361 237.294 185.366 237.285 185.372C237.276 185.378 237.268 185.385 237.261 185.394C237.255 185.402 237.251 185.412 237.249 185.422C237.248 185.431 237.248 185.442 237.251 185.451C237.254 185.461 237.258 185.47 237.265 185.478C237.272 185.486 237.281 185.493 237.291 185.498C237.301 185.504 237.312 185.507 237.323 185.509V185.509Z" fill="#3091C3"></path><path d="M219.796 201.426C215.229 199.022 224.99 192.078 230.441 188.759L231.316 190.238C218.405 197.209 218.294 200.482 219.796 201.426Z" fill="#FFB800"></path><path fill-rule="evenodd" clip-rule="evenodd" d="M150.598 102.777C163.636 102.777 176.141 97.597 185.361 88.3774C194.58 79.1577 199.76 66.6532 199.76 53.6147C199.76 40.5762 194.58 28.0717 185.361 18.8521C176.141 9.63242 163.636 4.45288 150.598 4.45288L150.598 53.6147V102.777ZM44.8721 154.889C44.8721 148.433 46.1437 142.04 48.6143 136.076C51.0849 130.111 54.7062 124.691 59.2713 120.126C63.8364 115.561 69.2559 111.94 75.2205 109.469C81.1851 106.999 87.5779 105.727 94.0339 105.727L94.0339 154.889H44.8721ZM147.884 4.45288C119.647 4.45288 96.7559 27.3438 96.7559 55.5812V154.888C124.993 154.888 147.884 131.997 147.884 103.76V4.45288Z" fill="url(#paint0_linear_186_4238)"></path><path d="M88.4934 108.091C71.2893 73.0878 126.592 37.6382 156.47 22.5241C151.978 24.8698 157.896 32.0551 160.37 31.2952C84.0982 60.7129 80.7371 92.3101 88.4934 108.091Z" fill="#FF993C"></path><path d="M172.11 41.1102L175.471 23.2594L183.172 19.6565C183.88 19.3254 184.374 18.625 184.688 17.9097C185.204 16.7384 186.138 15.2562 186.68 14.4678C185.648 14.6339 182.495 14.5256 180.302 14.4129C179.507 14.372 178.713 14.5045 177.978 14.8113L170.399 17.9774L148.246 13.6987C159.756 19.8835 161.187 24.7937 160.254 26.5784C166.06 26.1964 170.502 36.2496 172.11 41.1102Z" fill="#5B6CC8"></path><path fill-rule="evenodd" clip-rule="evenodd" d="M187.09 14.2046L186.646 14.276C186.15 14.3558 185.122 14.3712 183.926 14.3507C182.738 14.3304 181.404 14.2752 180.308 14.2189C179.486 14.1766 178.663 14.3137 177.901 14.6319L170.375 17.7756L148.28 13.508L148.152 13.8665C153.894 16.9519 157.103 19.7097 158.76 21.9029C160.423 24.1048 160.495 25.6945 160.081 26.4875L159.922 26.7912L160.264 26.7687C161.655 26.6772 162.976 27.2091 164.21 28.1553C165.445 29.1022 166.581 30.456 167.593 31.9829C169.617 35.0365 171.123 38.7474 171.924 41.1689L172.158 41.8763L175.639 23.3902L183.25 19.8291C184.019 19.4693 184.538 18.7194 184.861 17.9855C185.369 16.8307 186.295 15.3603 186.835 14.575L187.09 14.2046ZM186.285 14.7025C185.734 15.5353 184.963 16.7983 184.509 17.8305C184.203 18.5271 183.734 19.1779 183.087 19.4804L175.297 23.1252L172.053 40.3546C171.203 37.9358 169.778 34.5828 167.914 31.7703C166.889 30.224 165.725 28.8323 164.444 27.8498C163.249 26.9336 161.942 26.3663 160.546 26.3737C160.895 25.3474 160.607 23.7103 159.067 21.6708C157.473 19.5607 154.513 16.9816 149.411 14.1185L170.416 18.1756L178.049 14.9871C178.756 14.6917 179.522 14.5639 180.289 14.6033C181.386 14.6598 182.725 14.7151 183.92 14.7356C184.848 14.7515 185.701 14.7466 186.285 14.7025Z" fill="black"></path><path d="M174.267 23.9126C173.728 27.0695 172.539 33.5042 172.093 33.9878C172.59 30.9349 173.72 24.6457 174.267 23.9126Z" fill="white"></path><path d="M179.695 15.16C177.019 16.375 171.563 18.7831 171.142 18.695C173.689 17.4971 178.966 15.113 179.695 15.16Z" fill="white"></path><path d="M182.925 17.5637L183.649 15.7808L181.077 15.7217L182.925 17.5637Z" fill="white"></path><defs><linearGradient id="paint0_linear_186_4238" x1="129.199" y1="-3.90468" x2="129.199" y2="163.247" gradientUnits="userSpaceOnUse"><stop stop-color="#119E58"></stop><stop offset="1" stop-color="#395EAD"></stop></linearGradient></defs></svg>